<svg width="180" height="304" viewBox="0 0 180 304" fill="none" xmlns="http://www.w3.org/2000/svg">
<path d="M174.535 181.515C171.563 171.927 167.498 162.013 163.49 154.19C155.781 139.214 148.552 112.368 159.31 99.233C150.125 97.3154 140.46 103.068 139.425 109.473C137.948 118.696 140.537 130.872 127.574 128.878C116.261 127.133 119.655 112.119 124.046 99.233C132.406 74.7459 122.263 56.2224 105.791 47.651C106.692 54.4583 107.172 75.6088 93.3269 75.1678C73.4228 74.535 86.8073 42.6462 94.4391 32.3873C104.027 19.4823 85.2157 6.94151 87.651 0C83.0105 2.14765 80.4218 10.9875 83.7392 17.3921C89.185 27.8619 68.5906 37.2196 61.3231 47.21C54.0747 57.1812 51.1026 70.7766 55.954 80.7287C68.4947 106.424 65.2924 129.051 45.1965 124.928C38.5234 123.567 33.6337 107.555 42.2627 99.8466C26.673 99.2521 17.4113 122.071 18.3125 135.686C19.0987 147.459 13.2694 164.084 5.88682 181.035C2.09008 191.007 0 201.822 0 213.135C0 262.838 40.2876 303.145 90.0095 303.145C139.732 303.145 180 262.857 180 213.135C180 202.282 178.063 191.16 174.535 181.515ZM89.1084 142.896C95.4362 142.896 100.556 148.015 100.556 154.343C100.556 160.671 95.4362 165.791 89.1084 165.791C82.7804 165.791 77.6606 160.671 77.6606 154.343C77.6606 148.015 82.7804 142.896 89.1084 142.896ZM125.772 224.353C123.49 225.254 120.901 224.142 120 221.841L105.062 198.849L109.377 281.803C109.799 284.986 107.555 287.9 104.372 288.322C101.189 288.744 98.2742 286.5 97.8524 283.317L88.8399 231.678L79.8274 283.317C79.4055 286.5 76.4909 288.744 73.3077 288.322C70.1246 287.9 67.8811 284.986 68.303 281.803L72.6174 198.849L57.6797 221.841C56.7785 224.123 54.1898 225.254 51.9079 224.353C49.626 223.452 48.4947 220.863 49.3959 218.581L62.3202 182.991C67.4017 168.054 80.7095 167.095 88.8399 167.095C96.9703 167.095 110.278 168.073 115.359 182.991L128.284 218.581C129.185 220.863 128.073 223.452 125.772 224.353Z" fill="white"/>
</svg>
